<?xml version="1.0" encoding="UTF-8" standalone="no"?>
<!DOCTYPE svg PUBLIC "-//W3C//DTD SVG 1.1//EN"
 "http://www.w3.org/Graphics/SVG/1.1/DTD/svg11.dtd">
<!-- Generated by graphviz version 2.38.0 (20140413.2041)
 -->
<!-- Title: classes_AM3_Simulator Pages: 1 -->
<svg width="3579pt" height="438pt"
 viewBox="0.00 0.00 3578.50 438.00" xmlns="http://www.w3.org/2000/svg" xmlns:xlink="http://www.w3.org/1999/xlink">
<g id="graph0" class="graph" transform="scale(1 1) rotate(0) translate(4 434)">
<title>classes_AM3_Simulator</title>
<polygon fill="white" stroke="none" points="-4,4 -4,-434 3574.5,-434 3574.5,4 -4,4"/>
<!-- 0 -->
<g id="node1" class="node"><title>0</title>
<polygon fill="none" stroke="black" points="0,-15.5 0,-414.5 125,-414.5 125,-15.5 0,-15.5"/>
<text text-anchor="middle" x="62.5" y="-399.3" font-family="Times New Roman,serif" font-size="14.00">Chunk</text>
<polyline fill="none" stroke="black" points="0,-391.5 125,-391.5 "/>
<text text-anchor="start" x="8" y="-376.3" font-family="Times New Roman,serif" font-size="14.00">color : tuple</text>
<text text-anchor="start" x="8" y="-361.3" font-family="Times New Roman,serif" font-size="14.00">color : tuple</text>
<text text-anchor="start" x="8" y="-346.3" font-family="Times New Roman,serif" font-size="14.00">commands : list</text>
<text text-anchor="start" x="8" y="-331.3" font-family="Times New Roman,serif" font-size="14.00">commands : list</text>
<text text-anchor="start" x="8" y="-316.3" font-family="Times New Roman,serif" font-size="14.00">dependencies : list</text>
<text text-anchor="start" x="8" y="-301.3" font-family="Times New Roman,serif" font-size="14.00">dependencies : list</text>
<text text-anchor="start" x="8" y="-286.3" font-family="Times New Roman,serif" font-size="14.00">execution_time : int</text>
<text text-anchor="start" x="8" y="-271.3" font-family="Times New Roman,serif" font-size="14.00">execution_time : int</text>
<text text-anchor="start" x="8" y="-256.3" font-family="Times New Roman,serif" font-size="14.00">frame_data : list</text>
<text text-anchor="start" x="8" y="-241.3" font-family="Times New Roman,serif" font-size="14.00">frame_data : list</text>
<text text-anchor="start" x="8" y="-226.3" font-family="Times New Roman,serif" font-size="14.00">model</text>
<text text-anchor="start" x="8" y="-211.3" font-family="Times New Roman,serif" font-size="14.00">model : NoneType</text>
<text text-anchor="start" x="8" y="-196.3" font-family="Times New Roman,serif" font-size="14.00">number : int</text>
<text text-anchor="start" x="8" y="-181.3" font-family="Times New Roman,serif" font-size="14.00">number : int</text>
<text text-anchor="start" x="8" y="-166.3" font-family="Times New Roman,serif" font-size="14.00">row : int</text>
<text text-anchor="start" x="8" y="-151.3" font-family="Times New Roman,serif" font-size="14.00">slices : list</text>
<text text-anchor="start" x="8" y="-136.3" font-family="Times New Roman,serif" font-size="14.00">slices : list</text>
<polyline fill="none" stroke="black" points="0,-128.5 125,-128.5 "/>
<text text-anchor="start" x="8" y="-113.3" font-family="Times New Roman,serif" font-size="14.00">add_dependency()</text>
<text text-anchor="start" x="8" y="-98.3" font-family="Times New Roman,serif" font-size="14.00">append()</text>
<text text-anchor="start" x="8" y="-83.3" font-family="Times New Roman,serif" font-size="14.00">get_min_position()</text>
<text text-anchor="start" x="8" y="-68.3" font-family="Times New Roman,serif" font-size="14.00">is_empty()</text>
<text text-anchor="start" x="8" y="-53.3" font-family="Times New Roman,serif" font-size="14.00">set_hidden()</text>
<text text-anchor="start" x="8" y="-38.3" font-family="Times New Roman,serif" font-size="14.00">set_name()</text>
<text text-anchor="start" x="8" y="-23.3" font-family="Times New Roman,serif" font-size="14.00">shift_paths()</text>
</g>
<!-- 1 -->
<g id="node2" class="node"><title>1</title>
<polygon fill="none" stroke="black" points="143.5,-165.5 143.5,-264.5 247.5,-264.5 247.5,-165.5 143.5,-165.5"/>
<text text-anchor="middle" x="195.5" y="-249.3" font-family="Times New Roman,serif" font-size="14.00">ChunkOperator</text>
<polyline fill="none" stroke="black" points="143.5,-241.5 247.5,-241.5 "/>
<text text-anchor="start" x="151.5" y="-226.3" font-family="Times New Roman,serif" font-size="14.00">args</text>
<text text-anchor="start" x="151.5" y="-211.3" font-family="Times New Roman,serif" font-size="14.00">bl_idname : str</text>
<text text-anchor="start" x="151.5" y="-196.3" font-family="Times New Roman,serif" font-size="14.00">bl_label : str</text>
<polyline fill="none" stroke="black" points="143.5,-188.5 247.5,-188.5 "/>
<text text-anchor="start" x="151.5" y="-173.3" font-family="Times New Roman,serif" font-size="14.00">execute()</text>
</g>
<!-- 2 -->
<g id="node3" class="node"><title>2</title>
<polygon fill="none" stroke="black" points="265.5,-142.5 265.5,-287.5 403.5,-287.5 403.5,-142.5 265.5,-142.5"/>
<text text-anchor="middle" x="334.5" y="-272.3" font-family="Times New Roman,serif" font-size="14.00">Chunker</text>
<polyline fill="none" stroke="black" points="265.5,-264.5 403.5,-264.5 "/>
<polyline fill="none" stroke="black" points="265.5,-240.5 403.5,-240.5 "/>
<text text-anchor="start" x="273.5" y="-225.3" font-family="Times New Roman,serif" font-size="14.00">deselect_all_objects()</text>
<text text-anchor="start" x="273.5" y="-210.3" font-family="Times New Roman,serif" font-size="14.00">split_model()</text>
<text text-anchor="start" x="273.5" y="-195.3" font-family="Times New Roman,serif" font-size="14.00">start()</text>
<text text-anchor="start" x="273.5" y="-180.3" font-family="Times New Roman,serif" font-size="14.00">start_scaled()</text>
<text text-anchor="start" x="273.5" y="-165.3" font-family="Times New Roman,serif" font-size="14.00">start_single()</text>
<text text-anchor="start" x="273.5" y="-150.3" font-family="Times New Roman,serif" font-size="14.00">subdivide_row()</text>
</g>
<!-- 3 -->
<g id="node4" class="node"><title>3</title>
<polygon fill="none" stroke="black" points="422,-143 422,-287 581,-287 581,-143 422,-143"/>
<text text-anchor="middle" x="501.5" y="-271.8" font-family="Times New Roman,serif" font-size="14.00">ChunkerResult</text>
<polyline fill="none" stroke="black" points="422,-264 581,-264 "/>
<text text-anchor="start" x="430" y="-248.8" font-family="Times New Roman,serif" font-size="14.00">north_chunks : list</text>
<text text-anchor="start" x="430" y="-233.8" font-family="Times New Roman,serif" font-size="14.00">origin_chunk</text>
<text text-anchor="start" x="430" y="-218.8" font-family="Times New Roman,serif" font-size="14.00">origin_chunk : NoneType</text>
<text text-anchor="start" x="430" y="-203.8" font-family="Times New Roman,serif" font-size="14.00">south_chunks : list</text>
<polyline fill="none" stroke="black" points="422,-196 581,-196 "/>
<text text-anchor="start" x="430" y="-180.8" font-family="Times New Roman,serif" font-size="14.00">add_north_chunk()</text>
<text text-anchor="start" x="430" y="-165.8" font-family="Times New Roman,serif" font-size="14.00">add_south_chunk()</text>
<text text-anchor="start" x="430" y="-150.8" font-family="Times New Roman,serif" font-size="14.00">set_origin_chunk()</text>
</g>
<!-- 4 -->
<g id="node5" class="node"><title>4</title>
<polygon fill="none" stroke="black" points="599,-143 599,-287 688,-287 688,-143 599,-143"/>
<text text-anchor="middle" x="643.5" y="-271.8" font-family="Times New Roman,serif" font-size="14.00">LineSegment</text>
<polyline fill="none" stroke="black" points="599,-264 688,-264 "/>
<text text-anchor="start" x="607" y="-248.8" font-family="Times New Roman,serif" font-size="14.00">vertices : list</text>
<text text-anchor="start" x="607" y="-233.8" font-family="Times New Roman,serif" font-size="14.00">vertices : list</text>
<polyline fill="none" stroke="black" points="599,-226 688,-226 "/>
<text text-anchor="start" x="607" y="-210.8" font-family="Times New Roman,serif" font-size="14.00">flip()</text>
<text text-anchor="start" x="607" y="-195.8" font-family="Times New Roman,serif" font-size="14.00">getFirst()</text>
<text text-anchor="start" x="607" y="-180.8" font-family="Times New Roman,serif" font-size="14.00">getSecond()</text>
<text text-anchor="start" x="607" y="-165.8" font-family="Times New Roman,serif" font-size="14.00">shrink()</text>
<text text-anchor="start" x="607" y="-150.8" font-family="Times New Roman,serif" font-size="14.00">simplify()</text>
</g>
<!-- 5 -->
<g id="node6" class="node"><title>5</title>
<polygon fill="none" stroke="black" points="706.5,-0.5 706.5,-429.5 906.5,-429.5 906.5,-0.5 706.5,-0.5"/>
<text text-anchor="middle" x="806.5" y="-414.3" font-family="Times New Roman,serif" font-size="14.00">Machine</text>
<polyline fill="none" stroke="black" points="706.5,-406.5 906.5,-406.5 "/>
<text text-anchor="start" x="714.5" y="-391.3" font-family="Times New Roman,serif" font-size="14.00">chunks : list</text>
<text text-anchor="start" x="714.5" y="-376.3" font-family="Times New Roman,serif" font-size="14.00">chunks : list</text>
<text text-anchor="start" x="714.5" y="-361.3" font-family="Times New Roman,serif" font-size="14.00">last_location</text>
<text text-anchor="start" x="714.5" y="-346.3" font-family="Times New Roman,serif" font-size="14.00">last_location : NoneType</text>
<text text-anchor="start" x="714.5" y="-331.3" font-family="Times New Roman,serif" font-size="14.00">machine_model : NoneType</text>
<text text-anchor="start" x="714.5" y="-316.3" font-family="Times New Roman,serif" font-size="14.00">machine_model : NoneType</text>
<text text-anchor="start" x="714.5" y="-301.3" font-family="Times New Roman,serif" font-size="14.00">machine_number</text>
<text text-anchor="start" x="714.5" y="-286.3" font-family="Times New Roman,serif" font-size="14.00">machine_parameters</text>
<text text-anchor="start" x="714.5" y="-271.3" font-family="Times New Roman,serif" font-size="14.00">machine_parameters : NoneType</text>
<text text-anchor="start" x="714.5" y="-256.3" font-family="Times New Roman,serif" font-size="14.00">machine_speed</text>
<text text-anchor="start" x="714.5" y="-241.3" font-family="Times New Roman,serif" font-size="14.00">printhead_model : NoneType</text>
<text text-anchor="start" x="714.5" y="-226.3" font-family="Times New Roman,serif" font-size="14.00">printhead_model : NoneType</text>
<polyline fill="none" stroke="black" points="706.5,-218.5 906.5,-218.5 "/>
<text text-anchor="start" x="714.5" y="-203.3" font-family="Times New Roman,serif" font-size="14.00">clear_animation_data()</text>
<text text-anchor="start" x="714.5" y="-188.3" font-family="Times New Roman,serif" font-size="14.00">copy()</text>
<text text-anchor="start" x="714.5" y="-173.3" font-family="Times New Roman,serif" font-size="14.00">flip()</text>
<text text-anchor="start" x="714.5" y="-158.3" font-family="Times New Roman,serif" font-size="14.00">generate_commands()</text>
<text text-anchor="start" x="714.5" y="-143.3" font-family="Times New Roman,serif" font-size="14.00">generate_frames()</text>
<text text-anchor="start" x="714.5" y="-128.3" font-family="Times New Roman,serif" font-size="14.00">get_location()</text>
<text text-anchor="start" x="714.5" y="-113.3" font-family="Times New Roman,serif" font-size="14.00">get_path_between_points()</text>
<text text-anchor="start" x="714.5" y="-98.3" font-family="Times New Roman,serif" font-size="14.00">get_rotation()</text>
<text text-anchor="start" x="714.5" y="-83.3" font-family="Times New Roman,serif" font-size="14.00">rotate()</text>
<text text-anchor="start" x="714.5" y="-68.3" font-family="Times New Roman,serif" font-size="14.00">set_hidden()</text>
<text text-anchor="start" x="714.5" y="-53.3" font-family="Times New Roman,serif" font-size="14.00">set_keyframe()</text>
<text text-anchor="start" x="714.5" y="-38.3" font-family="Times New Roman,serif" font-size="14.00">set_last_location()</text>
<text text-anchor="start" x="714.5" y="-23.3" font-family="Times New Roman,serif" font-size="14.00">set_location()</text>
<text text-anchor="start" x="714.5" y="-8.3" font-family="Times New Roman,serif" font-size="14.00">set_number()</text>
</g>
<!-- 6 -->
<g id="node7" class="node"><title>6</title>
<polygon fill="none" stroke="black" points="924.5,-135.5 924.5,-294.5 1062.5,-294.5 1062.5,-135.5 924.5,-135.5"/>
<text text-anchor="middle" x="993.5" y="-279.3" font-family="Times New Roman,serif" font-size="14.00">MachineParameters</text>
<polyline fill="none" stroke="black" points="924.5,-271.5 1062.5,-271.5 "/>
<text text-anchor="start" x="932.5" y="-256.3" font-family="Times New Roman,serif" font-size="14.00">build_depth : int</text>
<text text-anchor="start" x="932.5" y="-241.3" font-family="Times New Roman,serif" font-size="14.00">chunks : list</text>
<text text-anchor="start" x="932.5" y="-226.3" font-family="Times New Roman,serif" font-size="14.00">machine_number : int</text>
<text text-anchor="start" x="932.5" y="-211.3" font-family="Times New Roman,serif" font-size="14.00">machine_speed : float</text>
<text text-anchor="start" x="932.5" y="-196.3" font-family="Times New Roman,serif" font-size="14.00">machine_width : int</text>
<text text-anchor="start" x="932.5" y="-181.3" font-family="Times New Roman,serif" font-size="14.00">printhead_depth : int</text>
<text text-anchor="start" x="932.5" y="-166.3" font-family="Times New Roman,serif" font-size="14.00">printhead_slope</text>
<polyline fill="none" stroke="black" points="924.5,-158.5 1062.5,-158.5 "/>
<text text-anchor="start" x="932.5" y="-143.3" font-family="Times New Roman,serif" font-size="14.00">copy()</text>
</g>
<!-- 7 -->
<g id="node8" class="node"><title>7</title>
<polygon fill="none" stroke="black" points="1081,-158 1081,-272 1208,-272 1208,-158 1081,-158"/>
<text text-anchor="middle" x="1144.5" y="-256.8" font-family="Times New Roman,serif" font-size="14.00">MoveCommand</text>
<polyline fill="none" stroke="black" points="1081,-249 1208,-249 "/>
<text text-anchor="start" x="1089" y="-233.8" font-family="Times New Roman,serif" font-size="14.00">color : tuple</text>
<text text-anchor="start" x="1089" y="-218.8" font-family="Times New Roman,serif" font-size="14.00">location</text>
<text text-anchor="start" x="1089" y="-203.8" font-family="Times New Roman,serif" font-size="14.00">machine_speed : int</text>
<text text-anchor="start" x="1089" y="-188.8" font-family="Times New Roman,serif" font-size="14.00">type : type</text>
<polyline fill="none" stroke="black" points="1081,-181 1208,-181 "/>
<text text-anchor="start" x="1089" y="-165.8" font-family="Times New Roman,serif" font-size="14.00">calculate_time()</text>
</g>
<!-- 8 -->
<g id="node9" class="node"><title>8</title>
<polygon fill="none" stroke="black" points="1226.5,-180 1226.5,-250 1358.5,-250 1358.5,-180 1226.5,-180"/>
<text text-anchor="middle" x="1292.5" y="-234.8" font-family="Times New Roman,serif" font-size="14.00">NewLayerCommand</text>
<polyline fill="none" stroke="black" points="1226.5,-227 1358.5,-227 "/>
<polyline fill="none" stroke="black" points="1226.5,-203 1358.5,-203 "/>
<text text-anchor="middle" x="1292.5" y="-187.8" font-family="Times New Roman,serif" font-size="14.00"> </text>
</g>
<!-- 9 -->
<g id="node10" class="node"><title>9</title>
<polygon fill="none" stroke="black" points="1376.5,-180.5 1376.5,-249.5 1462.5,-249.5 1462.5,-180.5 1376.5,-180.5"/>
<text text-anchor="middle" x="1419.5" y="-234.3" font-family="Times New Roman,serif" font-size="14.00">Path</text>
<polyline fill="none" stroke="black" points="1376.5,-226.5 1462.5,-226.5 "/>
<text text-anchor="start" x="1384.5" y="-211.3" font-family="Times New Roman,serif" font-size="14.00">vertices : list</text>
<polyline fill="none" stroke="black" points="1376.5,-203.5 1462.5,-203.5 "/>
<text text-anchor="start" x="1384.5" y="-188.3" font-family="Times New Roman,serif" font-size="14.00">append()</text>
</g>
<!-- 10 -->
<g id="node11" class="node"><title>10</title>
<polygon fill="none" stroke="black" points="1481,-143 1481,-287 1598,-287 1598,-143 1481,-143"/>
<text text-anchor="middle" x="1539.5" y="-271.8" font-family="Times New Roman,serif" font-size="14.00">Plane</text>
<polyline fill="none" stroke="black" points="1481,-264 1598,-264 "/>
<text text-anchor="start" x="1489" y="-248.8" font-family="Times New Roman,serif" font-size="14.00">distance : int</text>
<text text-anchor="start" x="1489" y="-233.8" font-family="Times New Roman,serif" font-size="14.00">distance : int</text>
<text text-anchor="start" x="1489" y="-218.8" font-family="Times New Roman,serif" font-size="14.00">normal</text>
<text text-anchor="start" x="1489" y="-203.8" font-family="Times New Roman,serif" font-size="14.00">normal</text>
<polyline fill="none" stroke="black" points="1481,-196 1598,-196 "/>
<text text-anchor="start" x="1489" y="-180.8" font-family="Times New Roman,serif" font-size="14.00">distanceToPoint()</text>
<text text-anchor="start" x="1489" y="-165.8" font-family="Times New Roman,serif" font-size="14.00">setDistance()</text>
<text text-anchor="start" x="1489" y="-150.8" font-family="Times New Roman,serif" font-size="14.00">setNormal()</text>
</g>
<!-- 11 -->
<g id="node12" class="node"><title>11</title>
<polygon fill="none" stroke="black" points="1616,-83 1616,-347 1787,-347 1787,-83 1616,-83"/>
<text text-anchor="middle" x="1701.5" y="-331.8" font-family="Times New Roman,serif" font-size="14.00">Printed</text>
<polyline fill="none" stroke="black" points="1616,-324 1787,-324 "/>
<text text-anchor="start" x="1624" y="-308.8" font-family="Times New Roman,serif" font-size="14.00">material</text>
<text text-anchor="start" x="1624" y="-293.8" font-family="Times New Roman,serif" font-size="14.00">material : NoneType</text>
<text text-anchor="start" x="1624" y="-278.8" font-family="Times New Roman,serif" font-size="14.00">model</text>
<text text-anchor="start" x="1624" y="-263.8" font-family="Times New Roman,serif" font-size="14.00">model : NoneType</text>
<text text-anchor="start" x="1624" y="-248.8" font-family="Times New Roman,serif" font-size="14.00">number</text>
<text text-anchor="start" x="1624" y="-233.8" font-family="Times New Roman,serif" font-size="14.00">number : int</text>
<text text-anchor="start" x="1624" y="-218.8" font-family="Times New Roman,serif" font-size="14.00">points</text>
<text text-anchor="start" x="1624" y="-203.8" font-family="Times New Roman,serif" font-size="14.00">points : list</text>
<text text-anchor="start" x="1624" y="-188.8" font-family="Times New Roman,serif" font-size="14.00">sourceMachine : NoneType</text>
<text text-anchor="start" x="1624" y="-173.8" font-family="Times New Roman,serif" font-size="14.00">sourceMachine : NoneType</text>
<polyline fill="none" stroke="black" points="1616,-166 1787,-166 "/>
<text text-anchor="start" x="1624" y="-150.8" font-family="Times New Roman,serif" font-size="14.00">createModel()</text>
<text text-anchor="start" x="1624" y="-135.8" font-family="Times New Roman,serif" font-size="14.00">endsMeet()</text>
<text text-anchor="start" x="1624" y="-120.8" font-family="Times New Roman,serif" font-size="14.00">getMaterial()</text>
<text text-anchor="start" x="1624" y="-105.8" font-family="Times New Roman,serif" font-size="14.00">set_hidden()</text>
<text text-anchor="start" x="1624" y="-90.8" font-family="Times New Roman,serif" font-size="14.00">verticesToPoints()</text>
</g>
<!-- 12 -->
<g id="node13" class="node"><title>12</title>
<polygon fill="none" stroke="black" points="1805,-165.5 1805,-264.5 1904,-264.5 1904,-165.5 1805,-165.5"/>
<text text-anchor="middle" x="1854.5" y="-249.3" font-family="Times New Roman,serif" font-size="14.00">ResetOperator</text>
<polyline fill="none" stroke="black" points="1805,-241.5 1904,-241.5 "/>
<text text-anchor="start" x="1813" y="-226.3" font-family="Times New Roman,serif" font-size="14.00">args</text>
<text text-anchor="start" x="1813" y="-211.3" font-family="Times New Roman,serif" font-size="14.00">bl_idname : str</text>
<text text-anchor="start" x="1813" y="-196.3" font-family="Times New Roman,serif" font-size="14.00">bl_label : str</text>
<polyline fill="none" stroke="black" points="1805,-188.5 1904,-188.5 "/>
<text text-anchor="start" x="1813" y="-173.3" font-family="Times New Roman,serif" font-size="14.00">execute()</text>
</g>
<!-- 13 -->
<g id="node14" class="node"><title>13</title>
<polygon fill="none" stroke="black" points="1922.5,-165.5 1922.5,-264.5 2036.5,-264.5 2036.5,-165.5 1922.5,-165.5"/>
<text text-anchor="middle" x="1979.5" y="-249.3" font-family="Times New Roman,serif" font-size="14.00">SimulateOperator</text>
<polyline fill="none" stroke="black" points="1922.5,-241.5 2036.5,-241.5 "/>
<text text-anchor="start" x="1930.5" y="-226.3" font-family="Times New Roman,serif" font-size="14.00">args</text>
<text text-anchor="start" x="1930.5" y="-211.3" font-family="Times New Roman,serif" font-size="14.00">bl_idname : str</text>
<text text-anchor="start" x="1930.5" y="-196.3" font-family="Times New Roman,serif" font-size="14.00">bl_label : str</text>
<polyline fill="none" stroke="black" points="1922.5,-188.5 2036.5,-188.5 "/>
<text text-anchor="start" x="1930.5" y="-173.3" font-family="Times New Roman,serif" font-size="14.00">execute()</text>
</g>
<!-- 14 -->
<g id="node15" class="node"><title>14</title>
<polygon fill="none" stroke="black" points="2055,-98 2055,-332 2222,-332 2222,-98 2055,-98"/>
<text text-anchor="middle" x="2138.5" y="-316.8" font-family="Times New Roman,serif" font-size="14.00">SimulationParameters</text>
<polyline fill="none" stroke="black" points="2055,-309 2222,-309 "/>
<text text-anchor="start" x="2063" y="-293.8" font-family="Times New Roman,serif" font-size="14.00">build_depth : int</text>
<text text-anchor="start" x="2063" y="-278.8" font-family="Times New Roman,serif" font-size="14.00">extrusion_diameter : float</text>
<text text-anchor="start" x="2063" y="-263.8" font-family="Times New Roman,serif" font-size="14.00">frames_per_second : int</text>
<text text-anchor="start" x="2063" y="-248.8" font-family="Times New Roman,serif" font-size="14.00">machine_speed : float</text>
<text text-anchor="start" x="2063" y="-233.8" font-family="Times New Roman,serif" font-size="14.00">model_name : str</text>
<text text-anchor="start" x="2063" y="-218.8" font-family="Times New Roman,serif" font-size="14.00">model_scale : int</text>
<text text-anchor="start" x="2063" y="-203.8" font-family="Times New Roman,serif" font-size="14.00">number_of_machines : int</text>
<text text-anchor="start" x="2063" y="-188.8" font-family="Times New Roman,serif" font-size="14.00">printhead_depth : float</text>
<text text-anchor="start" x="2063" y="-173.8" font-family="Times New Roman,serif" font-size="14.00">slice_thickness : float</text>
<text text-anchor="start" x="2063" y="-158.8" font-family="Times New Roman,serif" font-size="14.00">slope_angle : int</text>
<text text-anchor="start" x="2063" y="-143.8" font-family="Times New Roman,serif" font-size="14.00">suggest_machines : bool</text>
<text text-anchor="start" x="2063" y="-128.8" font-family="Times New Roman,serif" font-size="14.00">write_simulation_file : bool</text>
<polyline fill="none" stroke="black" points="2055,-121 2222,-121 "/>
<text text-anchor="middle" x="2138.5" y="-105.8" font-family="Times New Roman,serif" font-size="14.00"> </text>
</g>
<!-- 15 -->
<g id="node16" class="node"><title>15</title>
<polygon fill="none" stroke="black" points="2240.5,-60 2240.5,-370 2452.5,-370 2452.5,-60 2240.5,-60"/>
<text text-anchor="middle" x="2346.5" y="-354.8" font-family="Times New Roman,serif" font-size="14.00">SimulatorMath</text>
<polyline fill="none" stroke="black" points="2240.5,-347 2452.5,-347 "/>
<polyline fill="none" stroke="black" points="2240.5,-323 2452.5,-323 "/>
<text text-anchor="start" x="2248.5" y="-307.8" font-family="Times New Roman,serif" font-size="14.00">calculateBounds()</text>
<text text-anchor="start" x="2248.5" y="-292.8" font-family="Times New Roman,serif" font-size="14.00">ccw()</text>
<text text-anchor="start" x="2248.5" y="-277.8" font-family="Times New Roman,serif" font-size="14.00">distance()</text>
<text text-anchor="start" x="2248.5" y="-262.8" font-family="Times New Roman,serif" font-size="14.00">distanceToLine()</text>
<text text-anchor="start" x="2248.5" y="-247.8" font-family="Times New Roman,serif" font-size="14.00">estimate_execution_time()</text>
<text text-anchor="start" x="2248.5" y="-232.8" font-family="Times New Roman,serif" font-size="14.00">exec_time()</text>
<text text-anchor="start" x="2248.5" y="-217.8" font-family="Times New Roman,serif" font-size="14.00">getExtremeXValues()</text>
<text text-anchor="start" x="2248.5" y="-202.8" font-family="Times New Roman,serif" font-size="14.00">getIntersectionAtXPosition()</text>
<text text-anchor="start" x="2248.5" y="-187.8" font-family="Times New Roman,serif" font-size="14.00">getIntersectionLinesForBounds()</text>
<text text-anchor="start" x="2248.5" y="-172.8" font-family="Times New Roman,serif" font-size="14.00">getIntersectionsForLineSegments()</text>
<text text-anchor="start" x="2248.5" y="-157.8" font-family="Times New Roman,serif" font-size="14.00">lineIntersectsBounds()</text>
<text text-anchor="start" x="2248.5" y="-142.8" font-family="Times New Roman,serif" font-size="14.00">linearInterpolation()</text>
<text text-anchor="start" x="2248.5" y="-127.8" font-family="Times New Roman,serif" font-size="14.00">polygonLiesInPlane()</text>
<text text-anchor="start" x="2248.5" y="-112.8" font-family="Times New Roman,serif" font-size="14.00">segmentsIntersect()</text>
<text text-anchor="start" x="2248.5" y="-97.8" font-family="Times New Roman,serif" font-size="14.00">sideOfLine()</text>
<text text-anchor="start" x="2248.5" y="-82.8" font-family="Times New Roman,serif" font-size="14.00">sign()</text>
<text text-anchor="start" x="2248.5" y="-67.8" font-family="Times New Roman,serif" font-size="14.00">vertexLiesInPlane()</text>
</g>
<!-- 16 -->
<g id="node17" class="node"><title>16</title>
<polygon fill="none" stroke="black" points="2471,-158 2471,-272 2596,-272 2596,-158 2471,-158"/>
<text text-anchor="middle" x="2533.5" y="-256.8" font-family="Times New Roman,serif" font-size="14.00">SimulatorPanel</text>
<polyline fill="none" stroke="black" points="2471,-249 2596,-249 "/>
<text text-anchor="start" x="2479" y="-233.8" font-family="Times New Roman,serif" font-size="14.00">bl_category : str</text>
<text text-anchor="start" x="2479" y="-218.8" font-family="Times New Roman,serif" font-size="14.00">bl_label : str</text>
<text text-anchor="start" x="2479" y="-203.8" font-family="Times New Roman,serif" font-size="14.00">bl_region_type : str</text>
<text text-anchor="start" x="2479" y="-188.8" font-family="Times New Roman,serif" font-size="14.00">bl_space_type : str</text>
<polyline fill="none" stroke="black" points="2471,-181 2596,-181 "/>
<text text-anchor="start" x="2479" y="-165.8" font-family="Times New Roman,serif" font-size="14.00">draw()</text>
</g>
<!-- 17 -->
<g id="node18" class="node"><title>17</title>
<polygon fill="none" stroke="black" points="2614.5,-112.5 2614.5,-317.5 2804.5,-317.5 2804.5,-112.5 2614.5,-112.5"/>
<text text-anchor="middle" x="2709.5" y="-302.3" font-family="Times New Roman,serif" font-size="14.00">SimulatorScene</text>
<polyline fill="none" stroke="black" points="2614.5,-294.5 2804.5,-294.5 "/>
<polyline fill="none" stroke="black" points="2614.5,-270.5 2804.5,-270.5 "/>
<text text-anchor="start" x="2622.5" y="-255.3" font-family="Times New Roman,serif" font-size="14.00">dependencies_satisfied()</text>
<text text-anchor="start" x="2622.5" y="-240.3" font-family="Times New Roman,serif" font-size="14.00">describe_frame()</text>
<text text-anchor="start" x="2622.5" y="-225.3" font-family="Times New Roman,serif" font-size="14.00">describe_machines()</text>
<text text-anchor="start" x="2622.5" y="-210.3" font-family="Times New Roman,serif" font-size="14.00">describe_point()</text>
<text text-anchor="start" x="2622.5" y="-195.3" font-family="Times New Roman,serif" font-size="14.00">describe_printed()</text>
<text text-anchor="start" x="2622.5" y="-180.3" font-family="Times New Roman,serif" font-size="14.00">describe_printeds()</text>
<text text-anchor="start" x="2622.5" y="-165.3" font-family="Times New Roman,serif" font-size="14.00">init_simulation_data()</text>
<text text-anchor="start" x="2622.5" y="-150.3" font-family="Times New Roman,serif" font-size="14.00">simulate()</text>
<text text-anchor="start" x="2622.5" y="-135.3" font-family="Times New Roman,serif" font-size="14.00">still_running()</text>
<text text-anchor="start" x="2622.5" y="-120.3" font-family="Times New Roman,serif" font-size="14.00">write_simulation_data_to_file()</text>
</g>
<!-- 18 -->
<g id="node19" class="node"><title>18</title>
<polygon fill="none" stroke="black" points="2823,-180.5 2823,-249.5 2896,-249.5 2896,-180.5 2823,-180.5"/>
<text text-anchor="middle" x="2859.5" y="-234.3" font-family="Times New Roman,serif" font-size="14.00">Slice</text>
<polyline fill="none" stroke="black" points="2823,-226.5 2896,-226.5 "/>
<text text-anchor="start" x="2831" y="-211.3" font-family="Times New Roman,serif" font-size="14.00">paths : list</text>
<polyline fill="none" stroke="black" points="2823,-203.5 2896,-203.5 "/>
<text text-anchor="start" x="2831" y="-188.3" font-family="Times New Roman,serif" font-size="14.00">append()</text>
</g>
<!-- 19 -->
<g id="node20" class="node"><title>19</title>
<polygon fill="none" stroke="black" points="2914.5,-120 2914.5,-310 3038.5,-310 3038.5,-120 2914.5,-120"/>
<text text-anchor="middle" x="2976.5" y="-294.8" font-family="Times New Roman,serif" font-size="14.00">Slicer</text>
<polyline fill="none" stroke="black" points="2914.5,-287 3038.5,-287 "/>
<polyline fill="none" stroke="black" points="2914.5,-263 3038.5,-263 "/>
<text text-anchor="start" x="2922.5" y="-247.8" font-family="Times New Roman,serif" font-size="14.00">build_path()</text>
<text text-anchor="start" x="2922.5" y="-232.8" font-family="Times New Roman,serif" font-size="14.00">build_ring()</text>
<text text-anchor="start" x="2922.5" y="-217.8" font-family="Times New Roman,serif" font-size="14.00">fill_boundaries()</text>
<text text-anchor="start" x="2922.5" y="-202.8" font-family="Times New Roman,serif" font-size="14.00">fill_ring()</text>
<text text-anchor="start" x="2922.5" y="-187.8" font-family="Times New Roman,serif" font-size="14.00">generate_infill()</text>
<text text-anchor="start" x="2922.5" y="-172.8" font-family="Times New Roman,serif" font-size="14.00">slice()</text>
<text text-anchor="start" x="2922.5" y="-157.8" font-family="Times New Roman,serif" font-size="14.00">slice_chunk()</text>
<text text-anchor="start" x="2922.5" y="-142.8" font-family="Times New Roman,serif" font-size="14.00">sort_boundary()</text>
<text text-anchor="start" x="2922.5" y="-127.8" font-family="Times New Roman,serif" font-size="14.00">triangulate_object()</text>
</g>
<!-- 20 -->
<g id="node21" class="node"><title>20</title>
<polygon fill="none" stroke="black" points="3056.5,-180 3056.5,-250 3178.5,-250 3178.5,-180 3056.5,-180"/>
<text text-anchor="middle" x="3117.5" y="-234.8" font-family="Times New Roman,serif" font-size="14.00">ToolOffCommand</text>
<polyline fill="none" stroke="black" points="3056.5,-227 3178.5,-227 "/>
<polyline fill="none" stroke="black" points="3056.5,-203 3178.5,-203 "/>
<text text-anchor="middle" x="3117.5" y="-187.8" font-family="Times New Roman,serif" font-size="14.00"> </text>
</g>
<!-- 21 -->
<g id="node22" class="node"><title>21</title>
<polygon fill="none" stroke="black" points="3197,-180 3197,-250 3316,-250 3316,-180 3197,-180"/>
<text text-anchor="middle" x="3256.5" y="-234.8" font-family="Times New Roman,serif" font-size="14.00">ToolOnCommand</text>
<polyline fill="none" stroke="black" points="3197,-227 3316,-227 "/>
<polyline fill="none" stroke="black" points="3197,-203 3316,-203 "/>
<text text-anchor="middle" x="3256.5" y="-187.8" font-family="Times New Roman,serif" font-size="14.00"> </text>
</g>
<!-- 22 -->
<g id="node23" class="node"><title>22</title>
<polygon fill="none" stroke="black" points="3334.5,-165.5 3334.5,-264.5 3436.5,-264.5 3436.5,-165.5 3334.5,-165.5"/>
<text text-anchor="middle" x="3385.5" y="-249.3" font-family="Times New Roman,serif" font-size="14.00">Triangle</text>
<polyline fill="none" stroke="black" points="3334.5,-241.5 3436.5,-241.5 "/>
<text text-anchor="start" x="3342.5" y="-226.3" font-family="Times New Roman,serif" font-size="14.00">vertices : list</text>
<text text-anchor="start" x="3342.5" y="-211.3" font-family="Times New Roman,serif" font-size="14.00">vertices : list</text>
<polyline fill="none" stroke="black" points="3334.5,-203.5 3436.5,-203.5 "/>
<text text-anchor="start" x="3342.5" y="-188.3" font-family="Times New Roman,serif" font-size="14.00">intersectPlane()</text>
<text text-anchor="start" x="3342.5" y="-173.3" font-family="Times New Roman,serif" font-size="14.00">subtract()</text>
</g>
<!-- 23 -->
<g id="node24" class="node"><title>23</title>
<polygon fill="none" stroke="black" points="3454.5,-128 3454.5,-302 3570.5,-302 3570.5,-128 3454.5,-128"/>
<text text-anchor="middle" x="3512.5" y="-286.8" font-family="Times New Roman,serif" font-size="14.00">TriangleMesh</text>
<polyline fill="none" stroke="black" points="3454.5,-279 3570.5,-279 "/>
<text text-anchor="start" x="3462.5" y="-263.8" font-family="Times New Roman,serif" font-size="14.00">bottomLeftVertex</text>
<text text-anchor="start" x="3462.5" y="-248.8" font-family="Times New Roman,serif" font-size="14.00">bottomLeftVertex</text>
<text text-anchor="start" x="3462.5" y="-233.8" font-family="Times New Roman,serif" font-size="14.00">mesh : list</text>
<text text-anchor="start" x="3462.5" y="-218.8" font-family="Times New Roman,serif" font-size="14.00">mesh : list</text>
<text text-anchor="start" x="3462.5" y="-203.8" font-family="Times New Roman,serif" font-size="14.00">upperRightVertex</text>
<text text-anchor="start" x="3462.5" y="-188.8" font-family="Times New Roman,serif" font-size="14.00">upperRightVertex</text>
<polyline fill="none" stroke="black" points="3454.5,-181 3570.5,-181 "/>
<text text-anchor="start" x="3462.5" y="-165.8" font-family="Times New Roman,serif" font-size="14.00">append()</text>
<text text-anchor="start" x="3462.5" y="-150.8" font-family="Times New Roman,serif" font-size="14.00">meshAABBSize()</text>
<text text-anchor="start" x="3462.5" y="-135.8" font-family="Times New Roman,serif" font-size="14.00">normalize()</text>
</g>
</g>
</svg>
